<mxfile host="app.diagrams.net" modified="2024-02-11T14:50:05.026Z" agent="Mozilla/5.0 (Macintosh; Intel Mac OS X 10_15_7) AppleWebKit/537.36 (KHTML, like Gecko) Chrome/121.0.0.0 Safari/537.36" etag="V7oz_KV3fuQyCcy92ahb" version="23.1.2" type="device">
  <diagram name="Страница — 1" id="dM3AfT1WyVOprbuM8Jss">
    <mxGraphModel dx="1186" dy="587" grid="1" gridSize="10" guides="1" tooltips="1" connect="1" arrows="1" fold="1" page="1" pageScale="1" pageWidth="827" pageHeight="1169" math="0" shadow="0">
      <root>
        <mxCell id="0" />
        <mxCell id="1" parent="0" />
        <mxCell id="RZTCDoElQKVI6Fpp8qqM-1" value="сервис&lt;br&gt;начисления&lt;br&gt;зарплаты" style="rounded=0;whiteSpace=wrap;html=1;" parent="1" vertex="1">
          <mxGeometry x="210" y="240" width="120" height="160" as="geometry" />
        </mxCell>
        <mxCell id="39ODRyy2BGMzOKPrw9XJ-1" value="сервис&lt;br&gt;баланса&lt;br&gt;счета" style="rounded=0;whiteSpace=wrap;html=1;" parent="1" vertex="1">
          <mxGeometry x="600" y="235" width="120" height="160" as="geometry" />
        </mxCell>
        <mxCell id="39ODRyy2BGMzOKPrw9XJ-2" value="" style="endArrow=classic;html=1;rounded=0;exitX=1.025;exitY=0.294;exitDx=0;exitDy=0;exitPerimeter=0;entryX=-0.025;entryY=0.325;entryDx=0;entryDy=0;entryPerimeter=0;" parent="1" source="RZTCDoElQKVI6Fpp8qqM-1" target="39ODRyy2BGMzOKPrw9XJ-1" edge="1">
          <mxGeometry width="50" height="50" relative="1" as="geometry">
            <mxPoint x="340" y="380" as="sourcePoint" />
            <mxPoint x="390" y="330" as="targetPoint" />
          </mxGeometry>
        </mxCell>
        <mxCell id="39ODRyy2BGMzOKPrw9XJ-3" value="начисли Васе 1000р" style="edgeLabel;html=1;align=center;verticalAlign=middle;resizable=0;points=[];" parent="39ODRyy2BGMzOKPrw9XJ-2" vertex="1" connectable="0">
          <mxGeometry x="-0.3793" y="4" relative="1" as="geometry">
            <mxPoint x="33" as="offset" />
          </mxGeometry>
        </mxCell>
        <mxCell id="39ODRyy2BGMzOKPrw9XJ-4" value="" style="endArrow=classic;html=1;rounded=0;exitX=0;exitY=0.75;exitDx=0;exitDy=0;entryX=1;entryY=0.713;entryDx=0;entryDy=0;entryPerimeter=0;" parent="1" source="39ODRyy2BGMzOKPrw9XJ-1" target="RZTCDoElQKVI6Fpp8qqM-1" edge="1">
          <mxGeometry width="50" height="50" relative="1" as="geometry">
            <mxPoint x="340" y="380" as="sourcePoint" />
            <mxPoint x="390" y="330" as="targetPoint" />
          </mxGeometry>
        </mxCell>
        <mxCell id="39ODRyy2BGMzOKPrw9XJ-5" value="ОК" style="edgeLabel;html=1;align=center;verticalAlign=middle;resizable=0;points=[];" parent="39ODRyy2BGMzOKPrw9XJ-4" vertex="1" connectable="0">
          <mxGeometry x="0.0889" y="1" relative="1" as="geometry">
            <mxPoint x="8" y="-5" as="offset" />
          </mxGeometry>
        </mxCell>
        <mxCell id="39ODRyy2BGMzOKPrw9XJ-6" value="" style="swimlane;whiteSpace=wrap;html=1;" parent="1" vertex="1">
          <mxGeometry x="810" y="330" width="120" height="120" as="geometry" />
        </mxCell>
        <mxCell id="39ODRyy2BGMzOKPrw9XJ-7" value="Вася: 3000р&lt;br&gt;Петя: 5000р" style="text;html=1;align=center;verticalAlign=middle;resizable=0;points=[];autosize=1;strokeColor=none;fillColor=none;" parent="39ODRyy2BGMzOKPrw9XJ-6" vertex="1">
          <mxGeometry x="15" y="40" width="90" height="40" as="geometry" />
        </mxCell>
        <mxCell id="14aWJMj2_3uWb7lB3Rds-1" value="Идемпотентность" style="text;html=1;strokeColor=none;fillColor=none;align=center;verticalAlign=middle;whiteSpace=wrap;rounded=0;" vertex="1" parent="1">
          <mxGeometry x="230" y="490" width="60" height="30" as="geometry" />
        </mxCell>
      </root>
    </mxGraphModel>
  </diagram>
</mxfile>
